<svg xmlns="http://www.w3.org/2000/svg" xmlns:xlink="http://www.w3.org/1999/xlink" viewBox="0 0 64 64"><defs><style>.cls-1{fill:url(#linear-gradient);}.cls-2{fill:#e27dc0;}.cls-3{fill:url(#linear-gradient-2);}.cls-4{fill:#d861b0;}.cls-5{fill:url(#linear-gradient-3);}.cls-6{fill:#8288a1;}.cls-7{fill:url(#linear-gradient-4);}.cls-8{fill:url(#linear-gradient-5);}.cls-9{fill:#f2b1d9;}.cls-10{fill:url(#linear-gradient-6);}.cls-11{fill:url(#linear-gradient-7);}</style><linearGradient id="linear-gradient" x1="32" y1="37" x2="32" y2="26" gradientUnits="userSpaceOnUse"><stop offset="0" stop-color="#d96bb0"/><stop offset="1" stop-color="#e49fc6"/></linearGradient><linearGradient id="linear-gradient-2" y1="58" y2="43.6" xlink:href="#linear-gradient"/><linearGradient id="linear-gradient-3" x1="32" y1="63" x2="32" y2="57.96" gradientUnits="userSpaceOnUse"><stop offset="0" stop-color="#a0a6ba"/><stop offset="1" stop-color="#c6ccda"/></linearGradient><linearGradient id="linear-gradient-4" x1="32" y1="44" x2="32" y2="37" gradientUnits="userSpaceOnUse"><stop offset="0" stop-color="#d4d8e1"/><stop offset="1" stop-color="#f3f4f5"/></linearGradient><linearGradient id="linear-gradient-5" x1="32.01" y1="26" x2="32.01" y2="19" xlink:href="#linear-gradient-4"/><linearGradient id="linear-gradient-6" x1="32" y1="19" x2="32" y2="7" gradientUnits="userSpaceOnUse"><stop offset="0" stop-color="#fbcc88"/><stop offset="1" stop-color="#ffe5c3"/></linearGradient><linearGradient id="linear-gradient-7" x1="32" y1="7" x2="32" y2="1" gradientUnits="userSpaceOnUse"><stop offset="0" stop-color="#da5466"/><stop offset="1" stop-color="#f4929c"/></linearGradient></defs><title>Tart</title><g id="Tart"><rect class="cls-1" x="15" y="26" width="34" height="11"/><path class="cls-2" d="M15,23v4.67a9.15,9.15,0,0,0,7.09-.92A4.58,4.58,0,0,1,24.74,26a4.59,4.59,0,0,1,2.66.75,9,9,0,0,0,9.19,0,5.07,5.07,0,0,1,5.31,0,9.26,9.26,0,0,0,7.1.92V23Z"/><rect class="cls-3" x="5" y="43.6" width="54" height="14.4"/><rect class="cls-4" x="5" y="56" width="54" height="2"/><path class="cls-5" d="M58,63H6a5,5,0,0,1-5-5c0-.1-1.6,0,62,0A5,5,0,0,1,58,63Z"/><path class="cls-6" d="M62.86,59.18A5,5,0,0,1,58,63H6a5,5,0,0,1-4.86-3.82A5,5,0,0,0,5,61H59A5,5,0,0,0,62.86,59.18Z"/><rect class="cls-4" x="15" y="35" width="34" height="2"/><path class="cls-2" d="M59,40.6v5c-2.17,0-2.73-1.6-5.25-1.6-2.79,0-3.18,2-7.26,2S42,44,39.24,44,36.08,46,32,46s-4.45-2-7.25-2-3.16,2-7.25,2S13,44,10.25,44c-2.5,0-3.1,1.6-5.25,1.6v-5Z"/><path class="cls-7" d="M61,39v2.59a2,2,0,0,1-2.86,1.82C56.9,42.82,56.06,42,53.75,42c-3.63,0-3.63,2-7.26,2s-3.62-2-7.25-2S35.62,44,32,44s-3.62-2-7.25-2-3.62,2-7.25,2-3.62-2-7.24-2c-2.31,0-3.15.81-4.39,1.4A2,2,0,0,1,3,41.59V39a2,2,0,0,1,2-2H59A2,2,0,0,1,61,39Z"/><path class="cls-8" d="M51,21c0,2,.29,3.37-1,4.1a6.48,6.48,0,0,1-3.46.9c-3.62,0-3.62-2-7.25-2S35.62,26,32,26s-3.62-2-7.25-2-3.62,2-7.25,2c-1.9,0-4.49-.77-4.49-2.66V21a2,2,0,0,1,2-2H49A2,2,0,0,1,51,21Z"/><circle class="cls-9" cx="32" cy="51" r="2"/><circle class="cls-9" cx="22" cy="51" r="2"/><circle class="cls-9" cx="12" cy="51" r="2"/><circle class="cls-9" cx="42" cy="51" r="2"/><circle class="cls-9" cx="32" cy="31" r="2"/><circle class="cls-9" cx="22" cy="31" r="2"/><circle class="cls-9" cx="42" cy="31" r="2"/><circle class="cls-9" cx="52" cy="51" r="2"/><rect class="cls-10" x="30" y="7" width="4" height="12"/><path class="cls-11" d="M34,5a2,2,0,0,1-4,0c0-1.1,2-4,2-4S34,3.9,34,5Z"/></g></svg>