<svg xmlns="http://www.w3.org/2000/svg" viewBox="0 0 704.67 871.77"><defs><style>.cls-1{fill:#f8f8f8;}.cls-2{fill:#56cad8;}.cls-3{fill:#74d5de;}.cls-4{fill:#de8e68;}.cls-5{fill:#dedede;}.cls-6{fill:none;stroke:#000;stroke-linecap:round;stroke-linejoin:round;stroke-width:8px;}.cls-7{fill:#fed385;}.cls-8{fill:#fd8369;}.cls-9{fill:#fed892;}</style></defs><title>support-notes-colour</title><g id="Layer_2" data-name="Layer 2"><g id="vector"><path class="cls-1" d="M610.82,205.53C670,287.85,702,369.92,704.47,447.71c2.77,77.8-23.92,151.56-59.16,227.59C610.06,751.08,566,829.12,506.84,839.44c-59.16,10.07-133.43-47.33-214.49-79.8C211,727.41,122.92,720.36,68,671.78,13.15,622.94-8.25,532.56,2.83,444.44c11.33-88.11,55.64-174,123.61-254.52C194.67,109.11,287.06,33.58,376.18,37.1,465.55,40.63,551.9,123.2,610.82,205.53Z"/><path class="cls-2" d="M459.63,549.89c18.13,50.67,25.57,282.54,25.57,321.88H391.38l-39.05-88,67.78-246.39Z"/><path class="cls-3" d="M426.42,556.34c-5.12,33.88-50.69,288.55-60.86,315.43H230c-5.76-19.2-27.52-245.08,0-328.26S426.42,556.34,426.42,556.34Z"/><path class="cls-4" d="M449.93,421.7C458.56,420,576,366.43,602.6,343.63s-5.18-40.41-15.2-34.54-114.33,50.78-135.75,57.34S449.93,421.7,449.93,421.7Z"/><rect class="cls-5" x="550.67" y="181.79" width="85.67" height="165.52" transform="translate(-18.79 47) rotate(-4.46)"/><line class="cls-6" x1="507.71" y1="216.72" x2="552.38" y2="307.55"/><ellipse class="cls-4" cx="324.77" cy="115.28" rx="44.3" ry="64.28" transform="translate(-10.6 35.96) rotate(-6.24)"/><path class="cls-7" d="M316,189.34c148,0,154.9,360.5,148.4,367s-157,37-239,3C205.39,472.34,219,189.34,316,189.34Z"/><path class="cls-4" d="M550.19,264.16c0-8.44-9-26-22.21-22.88-9.09,2.14-21.59,20.37-27,28.11C482.67,282,366.81,377.83,357.9,387.11c-.37-7.74-7.8-23.23-16.72-37.56l-75.45,48.79c7.81,21.69,56.49,79,75.45,79,49.77,0,150.4-135.23,175.9-171.5C529,297.55,550.2,281,550.19,264.16Z"/><path class="cls-8" d="M248.76,84c0-18.77,15.23-29.75,20.18-34.88,10-10.4,16-38.13,37.13-38.13,6,0,15.32,3.49,21.18,3.49C334.58,14.45,349.17,0,363.88,0,388.52,0,394,22.68,394,29.65c0,25.52-31.78,44.78-36,47.08-1.79-2.93-10-13.89-12.73-15.55C342,68,319.93,79.35,303.25,89.52c-9.34,5.7-15.22,49.94-15.08,53.43C272.59,143,248.76,119.36,248.76,84Z"/><circle class="cls-4" cx="285.72" cy="126.15" r="12.55"/><path class="cls-4" d="M337,213.25c1,6.27-38.31,4.68-38.77-2l-4.33-62.84,35.6-3.89S336.06,207,337,213.25Z"/><path class="cls-9" d="M237.68,243.34c-44.19,24.07-4.68,149.08,23.23,161.88,31.53,0,95.16-45.65,95.16-61.06S295,212.14,237.68,243.34Z"/><path class="cls-4" d="M606.87,252.58c0,20.75,24.67,31.7,28.26,31.7,7.52,0,7.52-22.71,7.52-28.59,0-13.4-13.07-23.21-23-23.21S606.87,240.82,606.87,252.58Z"/></g></g></svg>