<svg xmlns="http://www.w3.org/2000/svg" viewBox="0 0 772.96 890.78"><defs><style>.cls-1{fill:#f2f2f2;}.cls-2{fill:#56cad8;}.cls-3{fill:#74d5de;}.cls-4{fill:#de8e68;}.cls-5{fill:#fcc486;}.cls-6{fill:#fed385;}.cls-7{fill:#fed892;}.cls-8{fill:#d3d3d3;}</style></defs><title>choices-colour</title><g id="Layer_2" data-name="Layer 2"><g id="Vector"><path class="cls-1" d="M630.56,118.29C710.86,152,770.2,244.35,772.88,335.38c2.52,91.19-51.63,180.87-109.13,258.15-57.33,77.11-118,141.65-192.61,170-74.76,28.33-163.6,20.46-227.3-19.11C180.31,705,142.09,633.76,99.67,563.35,57.26,493.12,11,423.55,1.78,340.57c-9.39-82.81,18.44-179.36,82.31-215.91s163.6-13.07,264.18-13.91S550.1,84.77,630.56,118.29Z"/><path class="cls-2" d="M206.74,357.24c.65,13.11,0,509.71,0,509.71h34.65l53-326.35c.67-10.58,10.33-127.55,10.33-127.55l-61-62.66Z"/><path class="cls-3" d="M346.78,353.7s39.7,254,39.7,264.34-65,244.66-65,244.66H288.13L316.5,592.54,219.23,364"/><path class="cls-4" d="M181.57,257.61c-1.81,2.63-13.2,29.2-12.34,39.66,1.32,16,12.3,24.85,31.08,34.56,5.4,0,11.16-62.37,11.16-62.37l-16.89-11.85Z"/><path class="cls-5" d="M219.23,188.22c-25.29,19.54-46.74,58-42.57,65.08,2,3.31,12.42,9.21,24.32,14.57"/><ellipse class="cls-4" cx="279.57" cy="73.58" rx="56.13" ry="44.22" transform="translate(141.72 327.69) rotate(-76.27)"/><path class="cls-6" d="M276.76,139.71c56.25,0,79.23,201.7,70,214-12.59,16.78-102.67,30.29-140,3.54C192.4,347,190.22,139.71,276.76,139.71Z"/><polyline points="206.74 866.95 206.74 890.78 288.13 890.78 288.13 877.32 241.39 866.95"/><polyline points="288.13 862.7 288.13 890.78 373.37 890.78 373.37 879.86 321.52 862.7"/><path class="cls-4" d="M356.54,244.71c1.58,1.68,15.25,21.63,17.16,25.89,3.81-3.25,126.16-105.83,128.17-107.22s5.49-1.27,6.85-.35a5.38,5.38,0,0,1,1.87,6.9c-1.08,2-16.29,15.38-16.29,15.38,1.24,1.55,7.59,17.65-.54,25.21-5.53,5.15-11.8,6.86-17.83,3.67-4,4.33-99.62,110-116.3,110-7.72,0-34.2-27.17-46.14-47.64"/><path class="cls-7" d="M272,199.69c0,33,26,79,35,79s54-33,54-41-35-67-65-67C284,170.69,272,183.69,272,199.69Z"/><path d="M269,67.7c17.24.13,48.54-33.69,48.54-35,0-3-5.32-18.85-36.19-18.85-22.05,0-56.74,15.44-56.74,66.15,0,26.11-10.21,54-10.21,66.6,0,19.15,15.43,31.22,39.8,31.22,11.77,0,29.47-5.8,29.47-15.32,0-13.92,14.28-59.15-13-69"/><path class="cls-4" d="M273.78,92.12a10.16,10.16,0,0,1-5.49,1.64c-6.23,0-11.28-5.84-11.28-13.05s5.05-13,11.28-13a10,10,0,0,1,3.42.6"/><rect class="cls-8" x="532.32" width="198.01" height="146.38"/><circle class="cls-8" cx="631.32" cy="272.52" r="84.3"/></g></g></svg>